Coordinates
version=1
nRows=4
nColumns=63
inDegrees=yes

Units are S.I. units (second, meters, Newtons, ...)
If the header above contains a line with 'inDegrees', this indicates whether rotational values are in degrees (yes) or radians (no).

endheader
time	pelvis_tilt	pelvis_list	pelvis_rotation	pelvis_tx	pelvis_ty	pelvis_tz	hip_flexion_r	hip_adduction_r	hip_rotation_r	knee_angle_r	knee_angle_r_beta	ankle_angle_r	subtalar_angle_r	mtp_angle_r	hip_flexion_l	hip_adduction_l	hip_rotation_l	knee_angle_l	knee_angle_l_beta	ankle_angle_l	subtalar_angle_l	mtp_angle_l	L5_S1_Flex_Ext	L5_S1_Lat_Bending	L5_S1_axial_rotation	L4_L5_Flex_Ext	L4_L5_Lat_Bending	L4_L5_axial_rotation	L3_L4_Flex_Ext	L3_L4_Lat_Bending	L3_L4_axial_rotation	L2_L3_Flex_Ext	L2_L3_Lat_Bending	L2_L3_axial_rotation	L1_L2_Flex_Ext	L1_L2_Lat_Bending	L1_L2_axial_rotation	L1_T12_Flex_Ext	L1_T12_Lat_Bending	L1_T12_axial_rotation	Abs_r3	Abs_r2	Abs_r1	Abs_t1	Abs_t2	neck_flexion	neck_bending	neck_rotation	arm_flex_r	arm_add_r	arm_rot_r	elbow_flex_r	pro_sup_r	wrist_flex_r	wrist_dev_r	arm_flex_l	arm_add_l	arm_rot_l	elbow_flex_l	pro_sup_l	wrist_flex_l	wrist_dev_l
      0.68750000	     -4.68146394	     -3.93552121	    109.55754874	      0.06239002	      0.48733167	      0.80034732	     -1.35707401	      0.12657420	    -18.06846891	      4.11046877	      0.07174121	     29.54669910	     10.81644548	      0.00000000	      4.11677175	      1.70002769	     14.37948396	     10.86449935	      0.18962129	     22.61516735	     -3.52494324	      0.00000000	      0.09948107	     -0.43706058	     -2.84666109	      0.18474630	     -0.58129058	     -3.02457740	      0.16343745	     -1.06266910	     -3.02457740	      0.11369692	     -1.06266910	     -2.49082845	      0.09237812	     -0.89125394	     -2.31291213	      0.05684348	     -0.67700684	     -2.13499582	      0.71058335	     -4.94411673	    -15.83227497	      0.00000000	      0.00000000	     14.14832143	     -2.22983154	      9.62325343	      0.24804642	    -17.08145246	     22.10033811	    102.60967054	     79.09326850	     -0.56972078	      6.24657963	      5.62578694	    -10.74214381	     34.55792025	     79.17423625	     84.99557815	     21.11877942	      6.43637920
      0.70833333	     -4.82951572	     -4.01838121	    109.68139546	      0.06260655	      0.48676836	      0.80042503	     -1.31573172	     -0.01718257	    -18.63243533	      4.18809553	      0.07309606	     29.61153462	     11.28357874	      0.00000000	      4.12005110	      1.93452384	     15.62875995	     10.77668517	      0.18808864	     22.51318246	     -4.54191519	      0.00000000	      0.09798889	     -0.47885275	     -2.95012818	      0.18197518	     -0.63687416	     -3.13451119	      0.16098596	     -1.16428258	     -3.13451119	      0.11199151	     -1.16428258	     -2.58136215	      0.09099249	     -0.97647653	     -2.39697914	      0.05599085	     -0.74174291	     -2.21259613	      0.69992488	     -5.41687808	    -16.40772787	      0.00000000	      0.00000000	     14.07892656	     -1.93032406	      8.97259990	     -0.04582928	    -16.44452026	     16.11251014	    105.31150561	     79.13454951	     -6.59909906	      6.74155936	      4.99481962	    -10.42810975	     32.99567935	     79.21506625	     85.06436963	     18.63153065	     10.41419020
      0.72916667	     -4.95453484	     -4.27773319	    109.77579391	      0.06309281	      0.48610676	      0.80057850	     -1.07268539	     -0.18627009	    -19.11827149	      4.25775959	      0.07431192	     29.56724322	     11.68449304	      0.00000000	      4.32560471	      2.14217124	     16.33581345	     10.58353223	      0.18471748	     22.71427446	     -4.77990950	      0.00000000	      0.12170889	     -0.52529163	     -3.05964363	      0.22602559	     -0.69863786	     -3.25087136	      0.19995554	     -1.27719406	     -3.25087136	      0.13910110	     -1.27719406	     -2.67718818	      0.11301888	     -1.07117469	     -2.48596045	      0.06954446	     -0.81367673	     -2.29473272	      0.86935446	     -5.94220395	    -17.01681998	      0.00000000	      0.00000000	     13.93876111	     -1.26646823	      8.45731729	      0.38755948	    -15.51660331	     10.58004620	    106.83137628	     80.08368938	    -10.16508931	      6.24974569	      4.00458417	    -10.39075859	     31.04726252	     79.32754672	     85.78095725	     17.04131775	     12.84904445
      0.75000000	     -5.13073706	     -4.46346008	    109.54101370	      0.06382151	      0.48564323	      0.80125703	     -0.77876397	     -0.46332471	    -19.59685134	      4.49899632	      0.07852230	     29.70487954	     12.46188615	      0.00000000	      4.49505175	      2.38488415	     16.61901883	     10.37638838	      0.18110214	     23.08140115	     -4.92604818	      0.00000000	      0.12352150	     -0.56670430	     -3.14933798	      0.22939178	     -0.75371672	     -3.34617160	      0.20293347	     -1.37788483	     -3.34617160	      0.14117272	     -1.37788483	     -2.75567073	      0.11470207	     -1.15562341	     -2.55883711	      0.07058019	     -0.87782496	     -2.36200349	      0.88230173	     -6.41067236	    -17.51567305	      0.00000000	      0.00000000	     13.85472397	     -1.08606718	      7.72066509	      1.62478202	    -14.60155235	      6.38996924	    107.60277094	     81.31153054	    -12.48924116	      5.78018001	      2.58068898	    -10.54252896	     28.36295524	     80.16385956	     86.08743560	     16.19351044	     15.84242740
